<svg width="13" height="14" viewBox="0 0 13 14" fill="none" xmlns="http://www.w3.org/2000/svg">
<path d="M11.7549 1.53768C11.7549 2.37384 11.0771 3.05168 10.2409 3.05168C9.40477 3.05168 8.72693 2.37384 8.72693 1.53768C8.72693 0.701525 9.40477 0.0236816 10.2409 0.0236816C11.0771 0.0236816 11.7549 0.701525 11.7549 1.53768Z" fill="white"/>
<path d="M0.546589 13.3926C0.538458 13.3712 0.533054 12.8466 0.534578 12.2479L0.537345 11.1368H1.13704H1.73202C1.72097 9.54506 1.74308 7.93071 1.73202 6.33902L1.08158 6.33466L0.459596 6.33031L0.438081 5.18789L0.416565 4.04547H1.07H1.73202V3.36517C1.73202 1.77187 2.68274 0.808233 4.32909 0.395785C5.33797 0.189869 5.88489 0.251275 6.91271 0.274669L6.93412 1.49921L6.95554 2.72374H6.27326C5.22067 2.72374 4.91299 2.97846 4.91044 3.71491V4.04534C7.21697 4.04534 9.46546 4.04534 11.772 4.04534C11.772 6.40371 11.772 8.77839 11.772 11.1368H12.9187C12.9187 11.1368 12.9153 11.1298 12.9187 11.2954C12.9367 12.1768 12.9102 12.3381 12.9187 13.3926C12.8933 13.4179 11.6476 13.3888 10.1744 13.3926H7.49583V12.2715V11.1368C7.88457 11.1368 8.27332 11.1368 8.66206 11.1368C8.66206 9.53427 8.66206 7.93396 8.66206 6.33147C7.57823 6.34408 5.8775 6.33776 4.91044 6.33147C4.83654 8.14819 4.86749 8.96715 4.91044 11.1368C5.34457 11.1532 5.77878 11.1224 6.21298 11.1368L6.23438 12.2867L6.25579 13.3926H3.40858C1.84261 13.3926 0.554719 13.414 0.546589 13.3926Z" fill="white"/>
</svg>
