<svg width="14" height="13" viewBox="0 0 14 13" fill="none" xmlns="http://www.w3.org/2000/svg">
<path d="M9.63335 4.28381C10.681 4.28381 11.6857 4.69998 12.4265 5.44076C13.1672 6.18154 13.5834 7.18625 13.5834 8.23388V12.8423H10.95V8.23388C10.95 7.88467 10.8113 7.54976 10.5644 7.30284C10.3175 7.05591 9.98256 6.91719 9.63335 6.91719C9.28414 6.91719 8.94924 7.05591 8.70231 7.30284C8.45539 7.54976 8.31666 7.88467 8.31666 8.23388V12.8423H5.68329V8.23388C5.68329 7.18625 6.09945 6.18154 6.84024 5.44076C7.58102 4.69998 8.58573 4.28381 9.63335 4.28381Z" fill="white"/>
<path d="M3.04994 4.94214H0.416565V12.8423H3.04994V4.94214Z" fill="white"/>
<path d="M1.73325 2.96712C2.46044 2.96712 3.04994 2.37761 3.04994 1.65043C3.04994 0.923241 2.46044 0.33374 1.73325 0.33374C1.00607 0.33374 0.416565 0.923241 0.416565 1.65043C0.416565 2.37761 1.00607 2.96712 1.73325 2.96712Z" fill="white"/>
</svg>
