<svg width="15" height="15" viewBox="0 0 15 15" fill="none" xmlns="http://www.w3.org/2000/svg">
<path fill-rule="evenodd" clip-rule="evenodd" d="M8.33558 0.0968612C8.18234 0.0344111 8.01468 0 7.83899 0C7.49156 0 7.17555 0.134568 6.94025 0.354426C6.92802 0.365851 6.91601 0.377507 6.90423 0.389386L1.14389 6.14973C0.62969 6.66392 0.62969 7.4976 1.14389 8.0118C1.65809 8.526 2.49177 8.526 3.00597 8.0118L6.5223 4.49547V12.8448C6.5223 13.572 7.1118 14.1615 7.83899 14.1615C8.56618 14.1615 9.15568 13.572 9.15568 12.8448V4.49544L12.672 8.0118C13.1862 8.526 14.0199 8.526 14.5341 8.0118C15.0483 7.4976 15.0483 6.66392 14.5341 6.14973L8.77004 0.385649C8.64179 0.257399 8.49367 0.161136 8.33558 0.0968612Z" fill="white"/>
</svg>
