<svg width="512" height="512" viewBox="0 0 512 512" fill="none" xmlns="http://www.w3.org/2000/svg">
<rect x="17.5" y="17.5" width="477" height="477" fill="white" stroke="#FFA800" stroke-width="35"/>
<path d="M327.236 350C327.236 336.333 322.736 325.5 313.736 317.5C304.736 309.5 293.403 302.667 279.736 297C266.07 291 251.403 285.5 235.736 280.5C220.07 275.167 205.403 268.5 191.736 260.5C178.07 252.5 166.736 242.167 157.736 229.5C148.736 216.833 144.236 200.333 144.236 180C144.236 151.667 154.57 128.833 175.236 111.5C196.236 94.1666 226.07 85.5 264.736 85.5C287.07 85.5 307.57 87.1666 326.236 90.5C344.903 93.8333 359.57 98.1667 370.236 103.5L354.736 145.5C346.403 141.167 333.903 137.333 317.236 134C300.57 130.333 282.236 128.5 262.236 128.5C239.57 128.5 222.57 133.333 211.236 143C199.903 152.667 194.236 163.833 194.236 176.5C194.236 189.5 198.736 200 207.736 208C216.736 216 228.07 223.167 241.736 229.5C255.403 235.5 270.07 241.333 285.736 247C301.403 252.667 316.07 259.667 329.736 268C343.403 276.333 354.736 286.667 363.736 299C372.736 311 377.236 326.5 377.236 345.5C377.236 361.167 374.236 375.333 368.236 388C362.236 400.667 353.57 411.5 342.236 420.5C330.903 429.5 317.236 436.5 301.236 441.5C285.236 446.167 267.07 448.5 246.736 448.5C219.403 448.5 196.236 446.333 177.236 442C158.57 438 144.403 433.667 134.736 429L151.236 385.5C159.57 389.833 172.07 394.333 188.736 399C205.736 403.333 224.403 405.5 244.736 405.5C256.403 405.5 267.236 404.5 277.236 402.5C287.236 400.167 295.903 396.833 303.236 392.5C310.903 387.833 316.736 382 320.736 375C325.07 368 327.236 359.667 327.236 350Z" fill="#6666B5"/>
</svg>
