<svg width="76" height="32" viewBox="0 0 76 32" fill="none" xmlns="http://www.w3.org/2000/svg">
<line x1="75" y1="31.5" x2="1.99997" y2="31.5" stroke="#FFA800"/>
<line x1="74.5" y1="32" x2="74.5" y2="24" stroke="#FFA800"/>
<line x1="2.49997" y1="32" x2="2.49997" y2="24" stroke="#FFA800"/>
<line x1="2" y1="0.5" x2="75" y2="0.5" stroke="#FFA800"/>
<line x1="2.5" x2="2.5" y2="8" stroke="#FFA800"/>
<line x1="74.5" x2="74.5" y2="8" stroke="#FFA800"/>
<path d="M4.25573 14.6765C4.21973 14.7395 4.18073 14.786 4.13873 14.816C4.09973 14.843 4.05023 14.8565 3.99023 14.8565C3.92723 14.8565 3.85823 14.834 3.78323 14.789C3.71123 14.741 3.62423 14.6885 3.52223 14.6315C3.42023 14.5745 3.30023 14.5235 3.16223 14.4785C3.02723 14.4305 2.86673 14.4065 2.68073 14.4065C2.51273 14.4065 2.36573 14.4275 2.23973 14.4695C2.11373 14.5085 2.00723 14.564 1.92023 14.636C1.83623 14.708 1.77323 14.795 1.73123 14.897C1.68923 14.996 1.66823 15.1055 1.66823 15.2255C1.66823 15.3785 1.71023 15.506 1.79423 15.608C1.88123 15.71 1.99523 15.797 2.13623 15.869C2.27723 15.941 2.43773 16.0055 2.61773 16.0625C2.79773 16.1195 2.98223 16.181 3.17123 16.247C3.36023 16.31 3.54473 16.385 3.72473 16.472C3.90473 16.556 4.06523 16.664 4.20623 16.796C4.34723 16.925 4.45973 17.084 4.54373 17.273C4.63073 17.462 4.67423 17.6915 4.67423 17.9615C4.67423 18.2555 4.62323 18.5315 4.52123 18.7895C4.42223 19.0445 4.27523 19.268 4.08023 19.46C3.88823 19.649 3.65273 19.799 3.37373 19.91C3.09473 20.018 2.77523 20.072 2.41523 20.072C2.20823 20.072 2.00423 20.051 1.80323 20.009C1.60223 19.97 1.40873 19.913 1.22273 19.838C1.03973 19.763 0.867231 19.673 0.705231 19.568C0.543231 19.463 0.399231 19.346 0.273231 19.217L0.628731 18.6365C0.658731 18.5945 0.697731 18.56 0.745731 18.533C0.793731 18.503 0.844731 18.488 0.898731 18.488C0.973731 18.488 1.05473 18.5195 1.14173 18.5825C1.22873 18.6425 1.33223 18.71 1.45223 18.785C1.57223 18.86 1.71173 18.929 1.87073 18.992C2.03273 19.052 2.22623 19.082 2.45123 19.082C2.79623 19.082 3.06323 19.001 3.25223 18.839C3.44123 18.674 3.53573 18.4385 3.53573 18.1325C3.53573 17.9615 3.49223 17.822 3.40523 17.714C3.32123 17.606 3.20873 17.516 3.06773 17.444C2.92673 17.369 2.76623 17.306 2.58623 17.255C2.40623 17.204 2.22323 17.1485 2.03723 17.0885C1.85123 17.0285 1.66823 16.9565 1.48823 16.8725C1.30823 16.7885 1.14773 16.679 1.00673 16.544C0.865731 16.409 0.751731 16.241 0.664731 16.04C0.580731 15.836 0.538731 15.5855 0.538731 15.2885C0.538731 15.0515 0.585231 14.8205 0.678231 14.5955C0.774231 14.3705 0.912231 14.171 1.09223 13.997C1.27223 13.823 1.49423 13.6835 1.75823 13.5785C2.02223 13.4735 2.32523 13.421 2.66723 13.421C3.05123 13.421 3.40523 13.481 3.72923 13.601C4.05323 13.721 4.32923 13.889 4.55723 14.105L4.25573 14.6765ZM11.2652 14.4875H9.30318V20H8.09268V14.4875H6.13068V13.493H11.2652V14.4875ZM14.3217 14.456V16.2605H16.5987V17.192H14.3217V19.0325H17.2107V20H13.1067V13.493H17.2107V14.456H14.3217ZM24.8489 13.493L22.2209 20H21.1274L18.4994 13.493H19.4714C19.5764 13.493 19.6619 13.5185 19.7279 13.5695C19.7939 13.6205 19.8434 13.6865 19.8764 13.7675L21.4109 17.7365C21.4619 17.8655 21.5099 18.008 21.5549 18.164C21.6029 18.317 21.6479 18.4775 21.6899 18.6455C21.7259 18.4775 21.7649 18.317 21.8069 18.164C21.8489 18.008 21.8954 17.8655 21.9464 17.7365L23.4719 13.7675C23.4959 13.6985 23.5424 13.6355 23.6114 13.5785C23.6834 13.5215 23.7704 13.493 23.8724 13.493H24.8489ZM27.7274 14.456V16.2605H30.0044V17.192H27.7274V19.0325H30.6164V20H26.5124V13.493H30.6164V14.456H27.7274ZM37.0682 16.22H37.3517C37.4657 16.22 37.5602 16.205 37.6352 16.175C37.7102 16.142 37.7747 16.091 37.8287 16.022L39.6242 13.7495C39.6992 13.6535 39.7772 13.5875 39.8582 13.5515C39.9422 13.5125 40.0472 13.493 40.1732 13.493H41.2172L39.0257 16.1975C38.8967 16.3625 38.7632 16.4795 38.6252 16.5485C38.7242 16.5845 38.8127 16.6355 38.8907 16.7015C38.9717 16.7645 39.0482 16.8485 39.1202 16.9535L41.3792 20H40.3127C40.1687 20 40.0607 19.9805 39.9887 19.9415C39.9197 19.8995 39.8612 19.8395 39.8132 19.7615L37.9727 17.3585C37.9157 17.2775 37.8497 17.2205 37.7747 17.1875C37.6997 17.1545 37.5917 17.138 37.4507 17.138H37.0682V20H35.8577V13.493H37.0682V16.22ZM46.4556 17.543L45.6636 15.3785C45.6246 15.2825 45.5841 15.1685 45.5421 15.0365C45.5001 14.9045 45.4581 14.762 45.4161 14.609C45.3771 14.762 45.3366 14.906 45.2946 15.041C45.2526 15.173 45.2121 15.2885 45.1731 15.3875L44.3856 17.543H46.4556ZM48.5931 20H47.6571C47.5521 20 47.4666 19.9745 47.4006 19.9235C47.3346 19.8695 47.2851 19.8035 47.2521 19.7255L46.7661 18.398H44.0706L43.5846 19.7255C43.5606 19.7945 43.5141 19.8575 43.4451 19.9145C43.3761 19.9715 43.2906 20 43.1886 20H42.2436L44.8041 13.493H46.0371L48.5931 20ZM52.3716 16.7645C52.5936 16.7645 52.7871 16.7375 52.9521 16.6835C53.1171 16.6265 53.2536 16.547 53.3616 16.445C53.4726 16.34 53.5551 16.214 53.6091 16.067C53.6631 15.917 53.6901 15.7505 53.6901 15.5675C53.6901 15.3935 53.6631 15.236 53.6091 15.095C53.5551 14.954 53.4741 14.834 53.3661 14.735C53.2581 14.636 53.1216 14.561 52.9566 14.51C52.7916 14.456 52.5966 14.429 52.3716 14.429H51.4671V16.7645H52.3716ZM52.3716 13.493C52.8066 13.493 53.1831 13.544 53.5011 13.646C53.8191 13.748 54.0816 13.8905 54.2886 14.0735C54.4956 14.2565 54.6486 14.4755 54.7476 14.7305C54.8496 14.9855 54.9006 15.2645 54.9006 15.5675C54.9006 15.8825 54.8481 16.172 54.7431 16.436C54.6381 16.697 54.4806 16.922 54.2706 17.111C54.0606 17.3 53.7966 17.447 53.4786 17.552C53.1636 17.657 52.7946 17.7095 52.3716 17.7095H51.4671V20H50.2566V13.493H52.3716ZM60.6304 19.001V20H56.8189V13.493H58.0294V19.001H60.6304ZM65.9227 17.543L65.1307 15.3785C65.0917 15.2825 65.0512 15.1685 65.0092 15.0365C64.9672 14.9045 64.9252 14.762 64.8832 14.609C64.8442 14.762 64.8037 14.906 64.7617 15.041C64.7197 15.173 64.6792 15.2885 64.6402 15.3875L63.8527 17.543H65.9227ZM68.0602 20H67.1242C67.0192 20 66.9337 19.9745 66.8677 19.9235C66.8017 19.8695 66.7522 19.8035 66.7192 19.7255L66.2332 18.398H63.5377L63.0517 19.7255C63.0277 19.7945 62.9812 19.8575 62.9122 19.9145C62.8432 19.9715 62.7577 20 62.6557 20H61.7107L64.2712 13.493H65.5042L68.0602 20ZM75.2092 13.493V20H74.5882C74.4922 20 74.4112 19.985 74.3452 19.955C74.2822 19.922 74.2207 19.868 74.1607 19.793L70.7632 15.455C70.7812 15.653 70.7902 15.836 70.7902 16.004V20H69.7237V13.493H70.3582C70.4092 13.493 70.4527 13.496 70.4887 13.502C70.5277 13.505 70.5607 13.514 70.5877 13.529C70.6177 13.541 70.6462 13.5605 70.6732 13.5875C70.7002 13.6115 70.7302 13.6445 70.7632 13.6865L74.1742 18.0425C74.1652 17.9375 74.1577 17.834 74.1517 17.732C74.1457 17.63 74.1427 17.5355 74.1427 17.4485V13.493H75.2092Z" fill="#6666B5"/>
</svg>
